<svg width="968" height="68" viewBox="0 0 968 68" fill="none" xmlns="http://www.w3.org/2000/svg">
<rect x="0.5" y="0.5" width="967" height="67" rx="4.5" fill="white"/>
<rect x="0.5" y="0.5" width="967" height="67" rx="4.5" fill="black" fill-opacity="0.2"/>
<rect x="0.5" y="0.5" width="967" height="67" rx="4.5" fill="black" fill-opacity="0.2"/>
<rect x="0.5" y="0.5" width="967" height="67" rx="4.5" fill="black" fill-opacity="0.2"/>
<rect x="0.5" y="0.5" width="967" height="67" rx="4.5" stroke="#9747FF" stroke-dasharray="10 5"/>
<path d="M259.215 28.2767L262.447 29L266 27L260.902 27.1133C260.852 27.1154 260.803 27.1274 260.761 27.1481L259.148 27.8671C259.098 27.8887 259.057 27.9214 259.031 27.9611C259.005 28.0007 258.995 28.0455 259.002 28.0896C259.01 28.1337 259.034 28.1751 259.072 28.2085C259.11 28.2418 259.16 28.2656 259.215 28.2767Z" fill="#5E5F61"/>
<path d="M275.302 25.7738L271.753 25.046C271.454 24.9845 271.145 24.9847 270.847 25.0465C270.549 25.1084 270.268 25.2305 270.023 25.4046L259.303 32.8048L256.728 32.6978C256.581 32.6931 256.435 32.7324 256.313 32.8103C256.19 32.8883 256.096 33.0008 256.045 33.1321C255.993 33.2633 255.986 33.4067 256.025 33.5419C256.063 33.6772 256.146 33.7974 256.261 33.8857L258.767 35.7746C258.809 35.8062 258.858 35.8272 258.91 35.8357C258.962 35.8441 259.016 35.8397 259.066 35.8227C259.782 35.5606 262.446 34.2175 265.595 32.5748L266.226 38.7336C266.232 38.787 266.252 38.8379 266.286 38.881C266.319 38.924 266.365 38.9575 266.417 38.9779C266.469 38.9983 266.526 39.0047 266.582 38.9966C266.638 38.9884 266.69 38.966 266.733 38.9316L268.142 37.8186C268.219 37.7572 268.271 37.672 268.288 37.5778L269.623 30.4665C271.877 29.2786 274.029 28.1282 275.544 27.3148C275.701 27.2335 275.829 27.1083 275.908 26.9561C275.988 26.8039 276.017 26.632 275.99 26.4638C275.964 26.2956 275.884 26.1392 275.761 26.0158C275.637 25.8924 275.477 25.8079 275.302 25.7738Z" fill="#5E5F61"/>
<path d="M41 30.78V28C41 26.35 39.65 25 38 25H34C33.23 25 32.53 25.3 32 25.78C31.47 25.3 30.77 25 30 25H26C24.35 25 23 26.35 23 28V30.78C22.39 31.33 22 32.12 22 33V39H24V37H40V39H42V33C42 32.12 41.61 31.33 41 30.78ZM34 27H38C38.55 27 39 27.45 39 28V30H33V28C33 27.45 33.45 27 34 27ZM25 28C25 27.45 25.45 27 26 27H30C30.55 27 31 27.45 31 28V30H25V28Z" fill="#5E5F61"/>
<path d="M568.833 38L563 32M563 32L568.833 26M563 32H577" stroke="white" stroke-width="2" stroke-linecap="round" stroke-linejoin="round"/>
<path d="M508.1 31.3892C507.771 30.9725 507.371 30.6114 507 30.2503C506.043 29.4169 504.958 28.8197 504.044 27.9447C501.915 25.9168 501.444 22.5695 502.801 20C501.444 20.3195 500.258 21.0417 499.244 21.8334C495.545 24.7224 494.088 29.8197 495.831 34.1948C495.888 34.3337 495.945 34.4726 495.945 34.6532C495.945 34.9588 495.731 35.2365 495.445 35.3477C495.117 35.4866 494.774 35.4032 494.502 35.181C494.421 35.1154 494.353 35.0353 494.302 34.9449C492.688 32.9587 492.431 30.1114 493.517 27.8336C491.132 29.7225 489.832 32.917 490.018 35.931C490.103 36.6255 490.189 37.3199 490.432 38.0144C490.632 38.8478 491.017 39.6811 491.446 40.4172C492.988 42.8201 495.659 44.5424 498.53 44.8896C501.587 45.2646 504.858 44.7229 507.2 42.6673C509.814 40.3617 510.728 36.6671 509.385 33.5004L509.2 33.1393C508.9 32.5004 508.1 31.3892 508.1 31.3892ZM503.586 40.1395C503.187 40.4728 502.53 40.8339 502.015 40.9728C500.416 41.5284 498.816 40.7506 497.873 39.8339C499.573 39.445 500.587 38.2227 500.887 36.9866C501.13 35.8755 500.673 34.9588 500.487 33.8893C500.316 32.8615 500.344 31.9865 500.73 31.0281C501.001 31.5559 501.287 32.0837 501.63 32.5004C502.729 33.8893 504.458 34.5004 504.829 36.3894C504.886 36.5838 504.915 36.7783 504.915 36.9866C504.958 38.1255 504.443 39.3756 503.586 40.1395Z" fill="white"/>
<path fill-rule="evenodd" clip-rule="evenodd" d="M534.021 24.9412C533.875 25.6795 533.238 26.2353 532.474 26.2353C531.71 26.2353 531.073 25.6795 530.926 24.9412H529.316C529.141 24.9412 529 24.7963 529 24.6176C529 24.439 529.141 24.2941 529.316 24.2941H530.926C531.073 23.5557 531.71 23 532.474 23C533.238 23 533.875 23.5557 534.021 24.2941H540.684C540.859 24.2941 541 24.439 541 24.6176C541 24.7963 540.859 24.9412 540.684 24.9412H534.021ZM533.421 24.6176C533.421 25.1537 532.997 25.5882 532.474 25.5882C531.95 25.5882 531.526 25.1537 531.526 24.6176C531.526 24.0816 531.95 23.6471 532.474 23.6471C532.997 23.6471 533.421 24.0816 533.421 24.6176Z" fill="white"/>
<path fill-rule="evenodd" clip-rule="evenodd" d="M539.074 28.8235C538.927 29.5619 538.29 30.1176 537.526 30.1176C536.762 30.1176 536.125 29.5619 535.979 28.8235H529.316C529.141 28.8235 529 28.6787 529 28.5C529 28.3213 529.141 28.1765 529.316 28.1765H535.979C536.125 27.4381 536.762 26.8824 537.526 26.8824C538.29 26.8824 538.927 27.4381 539.074 28.1765H540.684C540.859 28.1765 541 28.3213 541 28.5C541 28.6787 540.859 28.8235 540.684 28.8235H539.074ZM538.474 28.5C538.474 29.036 538.05 29.4706 537.526 29.4706C537.003 29.4706 536.579 29.036 536.579 28.5C536.579 27.964 537.003 27.5294 537.526 27.5294C538.05 27.5294 538.474 27.964 538.474 28.5Z" fill="white"/>
<path fill-rule="evenodd" clip-rule="evenodd" d="M532.474 34C533.238 34 533.875 33.4443 534.021 32.7059H540.684C540.859 32.7059 541 32.561 541 32.3824C541 32.2037 540.859 32.0588 540.684 32.0588H534.021C533.875 31.3205 533.238 30.7647 532.474 30.7647C531.71 30.7647 531.073 31.3205 530.926 32.0588H529.316C529.141 32.0588 529 32.2037 529 32.3824C529 32.561 529.141 32.7059 529.316 32.7059H530.926C531.073 33.4443 531.71 34 532.474 34ZM532.474 33.3529C532.997 33.3529 533.421 32.9184 533.421 32.3824C533.421 31.8463 532.997 31.4118 532.474 31.4118C531.95 31.4118 531.526 31.8463 531.526 32.3824C531.526 32.9184 531.95 33.3529 532.474 33.3529Z" fill="white"/>
<path fill-rule="evenodd" clip-rule="evenodd" d="M797.778 25.2222C797.778 24.6329 798.012 24.0676 798.429 23.6509C798.845 23.2341 799.411 23 800 23C800.589 23 801.155 23.2341 801.571 23.6509C801.988 24.0676 802.222 24.6329 802.222 25.2222C802.222 25.8116 801.988 26.3768 801.571 26.7936C801.155 27.2103 800.589 27.4444 800 27.4444C799.411 27.4444 798.845 27.2103 798.429 26.7936C798.012 26.3768 797.778 25.8116 797.778 25.2222ZM797.778 28.5556C797.041 28.5556 796.335 28.8482 795.814 29.3691C795.293 29.8901 795 30.5966 795 31.3333C795 31.7754 795.176 32.1993 795.488 32.5118C795.801 32.8244 796.225 33 796.667 33H803.333C803.775 33 804.199 32.8244 804.512 32.5118C804.824 32.1993 805 31.7754 805 31.3333C805 30.5966 804.707 29.8901 804.186 29.3691C803.665 28.8482 802.959 28.5556 802.222 28.5556H797.778Z" fill="#5E5F61"/>
<path fill-rule="evenodd" clip-rule="evenodd" d="M763.49 28.0178C763.298 28.0178 763.143 28.1728 763.143 28.364C763.143 28.5551 763.298 28.7101 763.49 28.7101L769.018 28.7101L769.018 34.2384C769.018 34.4296 769.173 34.5845 769.364 34.5845C769.555 34.5845 769.71 34.4296 769.71 34.2384L769.71 28.7101H775.238C775.43 28.7101 775.585 28.5551 775.585 28.364C775.585 28.1728 775.43 28.0178 775.238 28.0178H769.71L769.71 22.4895C769.71 22.2984 769.555 22.1434 769.364 22.1434C769.173 22.1434 769.018 22.2984 769.018 22.4895L769.018 28.0178L763.49 28.0178Z" fill="#DBDBDB" stroke="#DBDBDB" stroke-linecap="round"/>
<path d="M867.372 29.6375C867.372 29.5082 867.321 29.3842 867.229 29.2928C867.137 29.2014 867.013 29.15 866.884 29.15H864.93C864.801 29.15 864.676 29.2014 864.585 29.2928C864.493 29.3842 864.442 29.5082 864.442 29.6375V34.025H863.465V23.4625C863.465 22.9893 863.464 22.6825 863.434 22.4576C863.405 22.2463 863.359 22.1801 863.322 22.143C863.285 22.106 863.218 22.0598 863.007 22.0312C862.781 22.0013 862.474 22 862 22C861.526 22 861.219 22.0013 860.993 22.0312C860.782 22.0598 860.715 22.106 860.678 22.143C860.641 22.1801 860.595 22.2463 860.566 22.4576C860.536 22.6831 860.535 22.9893 860.535 23.4625V34.025H859.558V26.3875C859.558 26.2582 859.507 26.1342 859.415 26.0428C859.324 25.9514 859.199 25.9 859.07 25.9H857.116C856.987 25.9 856.863 25.9514 856.771 26.0428C856.679 26.1342 856.628 26.2582 856.628 26.3875V34.025H855.488C855.359 34.025 855.235 34.0764 855.143 34.1678C855.051 34.2592 855 34.3832 855 34.5125C855 34.6418 855.051 34.7658 855.143 34.8572C855.235 34.9486 855.359 35 855.488 35H868.512C868.641 35 868.765 34.9486 868.857 34.8572C868.949 34.7658 869 34.6418 869 34.5125C869 34.3832 868.949 34.2592 868.857 34.1678C868.765 34.0764 868.641 34.025 868.512 34.025H867.372V29.6375Z" fill="white"/>
<path fill-rule="evenodd" clip-rule="evenodd" d="M828.114 22.1151C828.266 21.9616 828.512 21.9616 828.664 22.1151L833.303 26.7962C833.689 27.1859 833.689 27.8141 833.303 28.2038L828.664 32.8849C828.512 33.0384 828.266 33.0384 828.114 32.8849C827.962 32.7315 827.962 32.4828 828.114 32.3294L832.202 28.2038C832.588 27.8141 832.588 27.1859 832.202 26.7962L828.114 22.6706C827.962 22.5172 827.962 22.2685 828.114 22.1151Z" fill="#2261BC"/>
<path d="M78.62 23.435C79.21 24.025 79.21 24.975 78.62 25.555L74.73 29.445L76.85 38.635L75.44 40.055L71.56 32.625L67.66 36.525L68.02 38.995L66.95 40.055L65.19 36.875L62 35.105L63.06 34.025L65.56 34.395L69.43 30.525L62 26.615L63.42 25.205L72.61 27.325L76.5 23.435C77.06 22.855 78.06 22.855 78.62 23.435Z" fill="#5E5F61"/>
<path d="M109.586 41.5C110.686 41.5 111.586 40.6 111.586 39.5H107.586C107.586 40.0304 107.797 40.5391 108.172 40.9142C108.547 41.2893 109.056 41.5 109.586 41.5ZM115.586 35.5V30.5C115.586 27.43 113.946 24.86 111.086 24.18V23.5C111.086 22.67 110.416 22 109.586 22C108.756 22 108.086 22.67 108.086 23.5V24.18C105.216 24.86 103.586 27.42 103.586 30.5V35.5L102.296 36.79C101.666 37.42 102.106 38.5 102.996 38.5H116.166C117.056 38.5 117.506 37.42 116.876 36.79L115.586 35.5Z" fill="#5E5F61"/>
<path d="M149 23C145.11 23 142 25.9988 142 29.75C142 31.0473 142.401 32.0492 143.097 33.0652L148.264 40.6238C148.42 40.8523 148.69 41 149 41C149.31 41 149.583 40.8488 149.736 40.6238L154.903 33.0652C155.599 32.0492 156 31.0473 156 29.75C156 25.9988 152.89 23 149 23ZM149 33.4977C146.853 33.4977 145.11 31.8172 145.11 29.743C145.11 27.6688 146.853 25.9883 149 25.9883C151.147 25.9883 152.89 27.6688 152.89 29.743C152.89 31.8172 151.147 33.4977 149 33.4977ZM149 27.5C147.709 27.5 146.667 28.5055 146.667 29.75C146.667 30.9945 147.709 32 149 32C150.291 32 151.333 30.9945 151.333 29.75C151.333 28.5055 150.291 27.5 149 27.5Z" fill="#5E5F61"/>
<path d="M383 42C388.523 42 393 37.5228 393 32C393 26.4772 388.523 22 383 22C377.477 22 373 26.4772 373 32C373 37.5228 377.477 42 383 42Z" stroke="white" stroke-width="2" stroke-linecap="round" stroke-linejoin="round"/>
<path d="M373 32H393" stroke="white" stroke-width="2" stroke-linecap="round" stroke-linejoin="round"/>
<path d="M383 22C385.501 24.7384 386.923 28.292 387 32C386.923 35.708 385.501 39.2616 383 42C380.499 39.2616 379.077 35.708 379 32C379.077 28.292 380.499 24.7384 383 22Z" stroke="white" stroke-width="2" stroke-linecap="round" stroke-linejoin="round"/>
<path d="M231.692 36.8L235 40M226.429 27.4286C228.322 27.4286 229.857 28.9636 229.857 30.8571M233.933 31.4667C233.933 35.5904 230.59 38.9333 226.467 38.9333C222.343 38.9333 219 35.5904 219 31.4667C219 27.3429 222.343 24 226.467 24C230.59 24 233.933 27.3429 233.933 31.4667Z" stroke="#DBDBDB" stroke-linecap="round"/>
<rect x="453.5" y="24.5" width="15" height="15" rx="0.5" stroke="#9F9F9F"/>
<path fill-rule="evenodd" clip-rule="evenodd" d="M184 27C184 25.9391 184.421 24.9217 185.172 24.1716C185.922 23.4214 186.939 23 188 23C189.061 23 190.078 23.4214 190.828 24.1716C191.579 24.9217 192 25.9391 192 27C192 28.0609 191.579 29.0783 190.828 29.8284C190.078 30.5786 189.061 31 188 31C186.939 31 185.922 30.5786 185.172 29.8284C184.421 29.0783 184 28.0609 184 27ZM184 33C182.674 33 181.402 33.5268 180.464 34.4645C179.527 35.4021 179 36.6739 179 38C179 38.7956 179.316 39.5587 179.879 40.1213C180.441 40.6839 181.204 41 182 41H194C194.796 41 195.559 40.6839 196.121 40.1213C196.684 39.5587 197 38.7956 197 38C197 36.6739 196.473 35.4021 195.536 34.4645C194.598 33.5268 193.326 33 192 33H184Z" fill="#5E5F61"/>
<path d="M338 31H340.4V33.3333H338V31ZM338 35.6667H340.4V38H338V35.6667ZM342.8 31H345.2V33.3333H342.8V31ZM342.8 35.6667H345.2V38H342.8V35.6667ZM347.6 31H350V33.3333H347.6V31ZM347.6 35.6667H350V38H347.6V35.6667Z" fill="white"/>
<path d="M336.222 43H351.778C353.003 43 354 42.0133 354 40.8V25.4C354 24.1867 353.003 23.2 351.778 23.2H349.556V21H347.333V23.2H340.667V21H338.444V23.2H336.222C334.997 23.2 334 24.1867 334 25.4V40.8C334 42.0133 334.997 43 336.222 43ZM351.778 27.6L351.779 40.8H336.222V27.6H351.778Z" fill="white"/>
<path d="M307.667 21C306.783 21 305.935 21.3512 305.31 21.9763C304.685 22.6014 304.333 23.4493 304.333 24.3333V37.6667C304.333 38.5507 304.685 39.3986 305.31 40.0237C305.935 40.6488 306.783 41 307.667 41C308.551 41 309.399 40.6488 310.024 40.0237C310.649 39.3986 311 38.5507 311 37.6667C311 36.7826 310.649 35.9348 310.024 35.3096C309.399 34.6845 308.551 34.3333 307.667 34.3333H294.333C293.449 34.3333 292.601 34.6845 291.976 35.3096C291.351 35.9348 291 36.7826 291 37.6667C291 38.5507 291.351 39.3986 291.976 40.0237C292.601 40.6488 293.449 41 294.333 41C295.217 41 296.065 40.6488 296.69 40.0237C297.315 39.3986 297.667 38.5507 297.667 37.6667V24.3333C297.667 23.4493 297.315 22.6014 296.69 21.9763C296.065 21.3512 295.217 21 294.333 21C293.449 21 292.601 21.3512 291.976 21.9763C291.351 22.6014 291 23.4493 291 24.3333C291 25.2174 291.351 26.0652 291.976 26.6904C292.601 27.3155 293.449 27.6667 294.333 27.6667H307.667C308.551 27.6667 309.399 27.3155 310.024 26.6904C310.649 26.0652 311 25.2174 311 24.3333C311 23.4493 310.649 22.6014 310.024 21.9763C309.399 21.3512 308.551 21 307.667 21Z" stroke="white" stroke-width="2" stroke-linecap="round" stroke-linejoin="round"/>
<path fill-rule="evenodd" clip-rule="evenodd" d="M604.591 27.1014C604.456 26.9662 604.237 26.9662 604.101 27.1014C603.966 27.2366 603.966 27.4557 604.101 27.5909L608.01 31.5L604.101 35.4091C603.966 35.5443 603.966 35.7634 604.101 35.8986C604.237 36.0338 604.456 36.0338 604.591 35.8986L608.5 31.9895L612.409 35.8986C612.544 36.0338 612.763 36.0338 612.899 35.8986C613.034 35.7634 613.034 35.5443 612.899 35.4091L608.99 31.5L612.899 27.5909C613.034 27.4557 613.034 27.2366 612.899 27.1014C612.763 26.9662 612.544 26.9662 612.409 27.1014L608.5 31.0105L604.591 27.1014Z" fill="#DBDBDB" stroke="#DBDBDB" stroke-linecap="round"/>
<path d="M654.667 30.8C654.667 29.527 654.175 28.3061 653.3 27.4059C652.425 26.5057 651.238 26 650 26C648.762 26 647.575 26.5057 646.7 27.4059C645.825 28.3061 645.333 29.527 645.333 30.8C645.333 36.4 643 38 643 38H657C657 38 654.667 36.4 654.667 30.8Z" stroke="white" stroke-width="2" stroke-linecap="round" stroke-linejoin="round"/>
<path d="M652 41C651.797 41.3042 651.505 41.5566 651.154 41.7321C650.803 41.9076 650.405 42 650 42C649.595 42 649.197 41.9076 648.846 41.7321C648.495 41.5566 648.203 41.3042 648 41" stroke="white" stroke-width="2" stroke-linecap="round" stroke-linejoin="round"/>
<path d="M697 30C698.105 30 699 29.1046 699 28C699 26.8954 698.105 26 697 26C695.895 26 695 26.8954 695 28C695 29.1046 695.895 30 697 30Z" fill="white" stroke="white" stroke-width="2" stroke-linecap="round" stroke-linejoin="round"/>
<path d="M688 36C689.105 36 690 35.1046 690 34C690 32.8954 689.105 32 688 32C686.895 32 686 32.8954 686 34C686 35.1046 686.895 36 688 36Z" fill="white" stroke="white" stroke-width="2" stroke-linecap="round" stroke-linejoin="round"/>
<path d="M697 42C698.105 42 699 41.1046 699 40C699 38.8954 698.105 38 697 38C695.895 38 695 38.8954 695 40C695 41.1046 695.895 42 697 42Z" fill="white" stroke="white" stroke-width="2" stroke-linecap="round" stroke-linejoin="round"/>
<path d="M691 35L695 39" stroke="white" stroke-width="2" stroke-linecap="round" stroke-linejoin="round"/>
<path d="M695 29L691 33" stroke="white" stroke-width="2" stroke-linecap="round" stroke-linejoin="round"/>
<path d="M423.5 28.25L425.75 26M425.75 26L428 28.25M425.75 26L425.75 38M420.5 35.75L418.25 38M418.25 38L416 35.75M418.25 38L418.25 26" stroke="white" stroke-linecap="round" stroke-linejoin="round"/>
<path d="M743 32C743 36.9706 738.971 41 734 41C729.029 41 725 36.9706 725 32C725 27.0294 729.029 23 734 23C738.971 23 743 27.0294 743 32Z" fill="#5E5F61"/>
<path d="M733.999 35.967V36M732 29.91C732 28.8551 732.895 28 734 28C735.105 28 736 28.8551 736 29.91C736 30.9649 735.105 31.82 734 31.82C734 31.82 733.999 32.3901 733.999 33.0933" stroke="white" stroke-linecap="round" stroke-linejoin="round"/>
<path d="M906 32C906 36.9706 901.971 41 897 41C892.029 41 888 36.9706 888 32C888 27.0294 892.029 23 897 23C901.971 23 906 27.0294 906 32Z" fill="#3A633B"/>
<path d="M892 32.3335L895.143 36L902 28" stroke="white" stroke-linecap="round" stroke-linejoin="round"/>
<path d="M945 30.78V28C945 26.35 943.65 25 942 25H938C937.23 25 936.53 25.3 936 25.78C935.47 25.3 934.77 25 934 25H930C928.35 25 927 26.35 927 28V30.78C926.39 31.33 926 32.12 926 33V39H928V37H944V39H946V33C946 32.12 945.61 31.33 945 30.78ZM938 27H942C942.55 27 943 27.45 943 28V30H937V28C937 27.45 937.45 27 938 27ZM929 28C929 27.45 929.45 27 930 27H934C934.55 27 935 27.45 935 28V30H929V28Z" fill="#5E5F61"/>
</svg>
